<svg height='300px' width='300px'  fill="#000000" xmlns="http://www.w3.org/2000/svg" xmlns:xlink="http://www.w3.org/1999/xlink" version="1.1" preserveAspectRatio="none" x="0px" y="0px" viewBox="0 0 100 100"><defs><g id="b"><path fill="#000000" stroke="none" d=" M 68.15 17.4 L 69.4 14.75 69.9 16.5 70.75 14.25 71.4 16 72.15 13.9 73.4 15.65 73.75 14.15 74.65 15.75 75.25 13.9 76.4 15.25 76.65 13.65 77.5 14.75 78.65 13 79.15 14.25 81.15 12.25 Q 76.45 10.95 70.4 11 58.4 11.15 51.85 18 46.65 16.05 40.1 15.2 26.95 13.45 20 18.75 L 21.65 18.5 24.25 17.6 22 19.75 26.85 16.75 23.35 19.75 28.6 16.6 25.25 20 30 16.6 26.85 20.75 31.5 16.75 29.1 20.6 32.5 17.35 31.25 20.75 33.75 17.6 33.1 20.1 34.75 17.85 34.25 20.5 36.35 18.35 35.35 20.5 37.5 18.5 36.85 20.35 38.85 18.5 38.85 20.25 40.85 18.35 40.85 20 46.5 19.75 Q 41.5 20.5 35.75 23 24.3 28.05 20.75 37 L 19.85 40.25 22.85 34.25 21.5 38.85 24.75 33.1 23.25 38.5 25.85 33.1 25.1 37.35 26.85 31.5 27 36.6 27.85 31.5 28.1 35.6 28.75 30.75 30.1 34.75 30.1 29.85 31.25 33.75 31.75 29.75 32.6 32.6 33.25 28.35 34.1 30.9 37.5 27.5 38.5 28.25 Q 36.25 30.3 33.9 34.05 29.25 41.5 29 50 L 29.5 52 30.5 45.75 31.1 49.6 31.35 42.6 32.5 47.75 32.5 42.35 34.25 46 33.25 40.5 37.25 44 34.85 39.25 38 42.25 36.6 36.35 39.35 39.75 38 35 40.5 37.35 39.35 33.85 41.5 36.6 40.6 32.85 42.25 34.85 41.75 30.75 44.5 32.75 43.5 29.5 45.25 30.25 45 27.75 46.1 27.75 45.85 26 47.6 25.25 49.1 24.35 Q 46.8 28.05 45.55 33.8 43 45.3 48.1 55.6 L 50 57 48.25 52.35 50.75 54.25 48 50.1 50.85 51.85 Q 50 50.75 49.25 49.65 47.7 47.55 48 47.75 L 51.25 50.25 47.6 46.1 51.75 47.5 Q 50.55 46.8 49.4 46.05 47.15 44.6 47.5 44.6 48.1 44.6 52 46.25 L 47 43 52.25 44.6 47.75 42 52 43.6 Q 50.75 42.75 49.55 41.95 47.2 40.25 47.6 40.25 48.25 40.25 51.85 41.35 50.6 40.6 49.45 39.85 47.15 38.35 47.5 38.35 48.1 38.35 52.25 39.25 L 48.1 36.25 53.5 38 48.25 33.75 53.5 36.25 49.5 32.85 53.75 34 Q 52.65 33.1 51.55 32.2 49.45 30.4 49.75 30.35 50.25 30.25 53.5 30.75 L 49.75 27.85 52.5 28.1 50.35 26.25 53.35 26.85 51 24.7 52.2 25.05 Q 53.7 25.95 55.3 28.65 60.45 37.25 64.65 60.6 L 65.6 70.8 Q 66.45 82.15 66.25 88.1 L 72.9 88.35 Q 72.55 79.9 71.25 69.55 68.6 48.8 63.65 39.2 L 56.75 25.7 57.25 26.15 Q 57.9 26.7 58.5 27.5 59.5 28.75 60.25 28.65 L 60.4 30.4 61.4 29 61.35 31.4 62.5 30.15 62.35 32.65 63.65 30.15 63 33.5 64.4 30.75 63.75 34.25 65.5 31.4 64.9 35.75 66.4 32.25 65.75 36 67.4 32.65 66.75 36.65 68.25 34 68.15 38 69.4 35.4 69.15 38.75 70.5 35.65 70.4 39.65 71.75 37.4 71.75 39.9 72.5 38 73.65 39.25 Q 74.1 37.6 72.45 34.55 69.1 28.55 58.65 21.9 L 60.65 21.25 62.15 22.7 62.25 22 63.15 23.05 63.4 21.65 64.25 23.9 64.5 21.75 65.65 24.5 66 22.25 66.65 25.15 67 22.15 67.5 25.25 68.65 22.65 69 25.5 69.9 22.65 70.15 25.65 71 23.65 71.25 25.5 72.25 23.25 73 26 73.5 23.4 74.65 26.15 75.65 23.9 77 26.25 Q 77.4 24.3 75.25 22.3 70.9 18.3 58 18.15 L 61.25 16 62.4 17 64.25 15.25 64.3 17.25 66.75 14.4 66.35 17.15 68.75 15.15 68.15 17.4 Z"></path></g><path id="a" stroke="#000000" stroke-width="1" stroke-linejoin="round" stroke-linecap="round" fill="none" d=" M 51.85 18 Q 46.65 16.05 40.1 15.2 26.95 13.45 20 18.75 L 21.65 18.5 24.25 17.6 22 19.75 26.85 16.75 23.35 19.75 28.6 16.6 25.25 20 30 16.6 26.85 20.75 31.5 16.75 29.1 20.6 32.5 17.35 31.25 20.75 33.75 17.6 33.1 20.1 34.75 17.85 34.25 20.5 36.35 18.35 35.35 20.5 37.5 18.5 36.85 20.35 38.85 18.5 38.85 20.25 40.85 18.35 40.85 20 46.5 19.75 Q 41.5 20.5 35.75 23 24.3 28.05 20.75 37 L 19.85 40.25 22.85 34.25 21.5 38.85 24.75 33.1 23.25 38.5 25.85 33.1 25.1 37.35 26.85 31.5 27 36.6 27.85 31.5 28.1 35.6 28.75 30.75 30.1 34.75 30.1 29.85 31.25 33.75 31.75 29.75 32.6 32.6 33.25 28.35 34.1 30.9 37.5 27.5 38.5 28.25 Q 36.25 30.3 33.9 34.05 29.25 41.5 29 50 L 29.5 52 30.5 45.75 31.1 49.6 31.35 42.6 32.5 47.75 32.5 42.35 34.25 46 33.25 40.5 37.25 44 34.85 39.25 38 42.25 36.6 36.35 39.35 39.75 38 35 40.5 37.35 39.35 33.85 41.5 36.6 40.6 32.85 42.25 34.85 41.75 30.75 44.5 32.75 43.5 29.5 45.25 30.25 45 27.75 46.1 27.75 45.85 26 47.6 25.25 49.1 24.35 Q 46.8 28.05 45.55 33.8 43 45.3 48.1 55.6 L 50 57 48.25 52.35 50.75 54.25 48 50.1 50.85 51.85 Q 50 50.75 49.25 49.65 47.7 47.55 48 47.75 L 51.25 50.25 47.6 46.1 51.75 47.5 Q 50.55 46.8 49.4 46.05 47.15 44.6 47.5 44.6 48.1 44.6 52 46.25 L 47 43 52.25 44.6 47.75 42 52 43.6 Q 50.75 42.75 49.55 41.95 47.2 40.25 47.6 40.25 48.25 40.25 51.85 41.35 50.6 40.6 49.45 39.85 47.15 38.35 47.5 38.35 48.1 38.35 52.25 39.25 L 48.1 36.25 53.5 38 48.25 33.75 53.5 36.25 49.5 32.85 53.75 34 Q 52.65 33.1 51.55 32.2 49.45 30.4 49.75 30.35 50.25 30.25 53.5 30.75 L 49.75 27.85 52.5 28.1 50.35 26.25 53.35 26.85 51 24.7 52.2 25.05 Q 53.7 25.95 55.3 28.65 60.45 37.25 64.65 60.6 L 65.6 70.8 Q 66.45 82.15 66.25 88.1 L 72.9 88.35 Q 72.55 79.9 71.25 69.55 68.6 48.8 63.65 39.2 L 56.75 25.7 57.25 26.15 Q 57.9 26.7 58.5 27.5 59.5 28.75 60.25 28.65 L 60.4 30.4 61.4 29 61.35 31.4 62.5 30.15 62.35 32.65 63.65 30.15 63 33.5 64.4 30.75 63.75 34.25 65.5 31.4 64.9 35.75 66.4 32.25 65.75 36 67.4 32.65 66.75 36.65 68.25 34 68.15 38 69.4 35.4 69.15 38.75 70.5 35.65 70.4 39.65 71.75 37.4 71.75 39.9 72.5 38 73.65 39.25 Q 74.1 37.6 72.45 34.55 69.1 28.55 58.65 21.9 L 60.65 21.25 62.15 22.7 62.25 22 63.15 23.05 63.4 21.65 64.25 23.9 64.5 21.75 65.65 24.5 66 22.25 66.65 25.15 67 22.15 67.5 25.25 68.65 22.65 69 25.5 69.9 22.65 70.15 25.65 71 23.65 71.25 25.5 72.25 23.25 73 26 73.5 23.4 74.65 26.15 75.65 23.9 77 26.25 Q 77.4 24.3 75.25 22.3 70.9 18.3 58 18.15 L 61.25 16 62.4 17 64.25 15.25 64.3 17.25 66.75 14.4 66.35 17.15 68.75 15.15 68.15 17.4 69.4 14.75 69.9 16.5 70.75 14.25 71.4 16 72.15 13.9 73.4 15.65 73.75 14.15 74.65 15.75 75.25 13.9 76.4 15.25 76.65 13.65 77.5 14.75 78.65 13 79.15 14.25 81.15 12.25 Q 76.45 10.95 70.4 11 58.4 11.15 51.85 18 Z"></path></defs><g transform="matrix( 1, 0, 0, 1, 0,0) "><use xlink:href="#b"></use><use xlink:href="#a"></use></g></svg>